                        <svg 
	 viewBox="0 0 512 512" width="24" height="24" fill="#780060" stroke="#ff91ec" strokeWidth="10" strokeLinecap="round" strokeLinejoin="round" >
	<path d="M510.3,289.7v83.5l-71.9,26.2l-1.7,1.2l1.1,0.8l73.6-26.8l0.6-0.8v-85.3l-1.2-0.8L510.3,289.7z M503.9,119.8l-64.8,23.7
		v83.4l71.3-25.9v-83.5L503.9,119.8z M510.3,287.1v-83.5l-71.2,25.9V313L510.3,287.1z M436.7,313.9v-83.4L366.3,256v83.5
		L436.7,313.9z M363.4,426.6v-83.4l-70.7,25.7v83.5L363.4,426.6z M366.3,342.6v82.5l70.7-25.7v-82.5L366.3,342.6L366.3,342.6z
		 M410.9,382.7c-7.8,2.9-14.1-1.6-14.1-9.8c0-8.3,6.3-17.4,14.1-20.3c7.8-2.8,14.2,1.7,14.2,9.9
		C425.1,370.8,418.8,379.9,410.9,382.7L410.9,382.7z M282.2,198.7l7.7-2.8l-70.1-25.6l-70.9,25.8l2.3,0.8l67.9,24.8L282.2,198.7z
		 M437.5,227.5V144l-71.2,25.9v83.5L437.5,227.5z M363.9,254.3v-83.5l-70.4,25.7v83.4L363.9,254.3z M291.1,197.3l-71.2,25.9v83.5
		l71.2-25.9V197.3z M147.3,280.8l70.9,25.8v-83.5l-70.9-25.8V280.8z M220.6,167.9l70,25.5v-82.5l-70-25.5V167.9z M437.5,57.9
		l-70.8,25.7v83.5l70.8-25.8V57.9z M361.6,83.3l-68.8-25L223,83.7l68.9,25L361.6,83.3z M327.7,98.3l-34.6,12.7v82.5l70.8-25.7V85.2
		L327.7,98.3z M319.4,157.5c-7.9,2.9-14.1-1.6-14.1-9.8c0-8.3,6.3-17.4,14.1-20.2c7.8-2.8,14.2,1.6,14.2,9.9
		C333.6,145.7,327.3,154.7,319.4,157.5z M218.2,392.8v-83.5l-70.9-25.8v83.5L218.2,392.8z M291.8,366.6v-83.5l-71.9,26.2v83.5
		L291.8,366.6z M293.5,365.9l70.3-25.6v-83.5l-70.3,25.6V365.9z M291.8,452.7l-71.9,26.2v-83.5h-1.7v83.5L147.3,453v-83.5l-1.1-1.1
		l-0.6-1.3l-71.2-25.8V257l0.8,0.3l70.1,25.5l0.3-1.7l-69.6-25.3l69.6-25.2v-2.4l-69.5-25.3l69.5-25.3v18.7l1.7-1.1v-50.6l69.5,25.2
		l1.3-1.2L151.2,144l-2.3-0.8l69.2-25.2v-1.8l-71.9,26.2v0.4l-0.6,0.4v32.4L73.4,202v0.4l-0.6,0.4v85.5L0.5,314.6v0.4L0,315.4v85.2
		l0.5,0.8l72.6,26.4l0.2-0.2l0.1,0.3l72.5,26.4l0.2-0.2l0.1,0.3l72.5,26.3l0.3-0.2l0.2,0.2l73.6-26.8l0.6-0.8L291.8,452.7z
		 M74.5,204l69.5,25.3l-69.5,25.3V204z M72.5,425.9L1.7,400.1v-83.5l70.8,25.7V425.9z M72.8,340.7L3.3,315.4l69.6-25.3V340.7
		L72.8,340.7z M145.3,452.3l-70.8-25.7V343l70.8,25.8V452.3z M507.5,115.9L439.1,91v49.8L507.5,115.9z M434.9,56.4l-69.1-25.2
		l-69.7,25.3l69.3,25.3L434.9,56.4z"/>
</svg>