<svg width="17" height="17" viewBox="0 0 17 17" fill="none" xmlns="http://www.w3.org/2000/svg">
<path d="M11.5707 8.936C11.7467 8.792 11.8987 8.734 12.0267 8.762C12.1547 8.79 12.2227 8.916 12.2307 9.14C12.2307 9.212 12.2147 9.284 12.1827 9.356C12.1507 9.428 12.1147 9.49 12.0747 9.542C12.0347 9.594 11.9747 9.652 11.8947 9.716C11.8147 9.78 11.7527 9.828 11.7087 9.86C11.6647 9.892 11.5967 9.94 11.5047 10.004C11.4127 10.068 11.3547 10.104 11.3307 10.112C11.1387 10.248 10.9427 10.356 10.7427 10.436C10.7107 10.452 10.6347 10.492 10.5147 10.556C10.3947 10.692 10.1827 10.804 9.8787 10.892C9.6067 11.012 9.1507 11.056 8.5107 11.024C7.8307 10.984 7.3027 10.764 6.9267 10.364C6.7187 10.148 6.5627 10.04 6.4587 10.04C6.3627 10.04 5.8667 10.524 4.9707 11.492C4.0507 12.452 3.5387 12.932 3.4347 12.932C3.3707 12.932 3.2767 12.882 3.1527 12.782C3.0287 12.682 2.9147 12.572 2.8107 12.452C2.7067 12.332 2.6547 12.24 2.6547 12.176C2.6547 12.088 3.1467 11.544 4.1307 10.544C5.1147 9.536 5.6427 8.964 5.7147 8.828C5.7947 8.676 5.7967 8.372 5.7207 7.916C5.6447 7.46 5.5047 7.144 5.3007 6.968C5.0967 6.792 4.8447 6.764 4.5447 6.884C4.2447 7.004 3.9567 7.15 3.6807 7.322C3.4047 7.494 3.0927 7.76 2.7447 8.12C2.3967 8.48 2.1427 8.748 1.9827 8.924C1.8227 9.1 1.6427 9.312 1.4427 9.56H1.4307C1.2227 9.808 1.0387 9.904 0.878703 9.848C0.814703 9.824 0.738703 9.76 0.650703 9.656C0.570703 9.576 0.526703 9.508 0.518703 9.452C0.510703 9.364 0.562703 9.256 0.674703 9.128C0.754703 9.04 0.896703 8.874 1.1007 8.63C1.3047 8.386 1.4567 8.208 1.5567 8.096C1.6567 7.984 1.8067 7.82 2.0067 7.604C2.2067 7.388 2.3707 7.224 2.4987 7.112C2.6267 7 2.7907 6.856 2.9907 6.68C3.1907 6.504 3.3747 6.368 3.5427 6.272C3.7107 6.176 3.9007 6.074 4.1127 5.966C4.3247 5.858 4.5387 5.774 4.7547 5.714C4.9707 5.654 5.1947 5.608 5.4267 5.576C5.7387 5.552 5.9567 5.558 6.0807 5.594C6.2047 5.63 6.3507 5.712 6.5187 5.84C6.7667 6.056 6.9307 6.316 7.0107 6.62C7.0667 6.924 7.1667 7.1 7.3107 7.148C7.3027 7.14 7.4647 6.99 7.7967 6.698C8.1287 6.406 8.4807 6.106 8.8527 5.798C9.2247 5.49 9.4467 5.316 9.5187 5.276C9.5507 5.26 9.5927 5.236 9.6447 5.204C9.6967 5.172 9.7407 5.146 9.7767 5.126C9.8127 5.106 9.8547 5.086 9.9027 5.066C9.9507 5.046 9.9947 5.036 10.0347 5.036C10.1467 5.036 10.2827 5.106 10.4427 5.246C10.6027 5.386 10.6827 5.5 10.6827 5.588C10.6827 5.708 10.5067 5.958 10.1547 6.338C9.8027 6.718 9.5747 6.908 9.4707 6.908C9.4067 6.908 9.2687 6.998 9.0567 7.178C8.8447 7.358 8.6267 7.564 8.4027 7.796L7.5147 8.696L7.6587 9.176C7.7467 9.496 7.9387 9.744 8.2347 9.92C8.4427 10.048 8.5987 10.118 8.7027 10.13C8.8067 10.142 8.9907 10.112 9.2547 10.04C9.2947 10.032 9.3787 10.006 9.5067 9.962C9.6347 9.918 9.7567 9.88 9.8727 9.848C9.9887 9.816 10.0907 9.8 10.1787 9.8C10.7627 9.496 11.2267 9.208 11.5707 8.936ZM16.2922 9.356C16.2922 9.492 16.1662 9.684 15.9142 9.932C15.6622 10.18 15.4642 10.344 15.3202 10.424C15.2242 10.488 15.1122 10.55 14.9842 10.61C14.8562 10.67 14.7362 10.724 14.6242 10.772C14.5122 10.82 14.4082 10.862 14.3122 10.898C14.2162 10.934 14.1342 10.966 14.0662 10.994C13.9982 11.022 13.9602 11.036 13.9522 11.036C13.7522 11.124 13.5482 11.184 13.3402 11.216C13.1322 11.248 12.9662 11.266 12.8422 11.27C12.7182 11.274 12.5962 11.3 12.4762 11.348C12.3562 11.396 12.2502 11.496 12.1582 11.648C12.0662 11.8 11.9802 12.028 11.9002 12.332C11.8442 12.54 11.7762 12.924 11.6962 13.484C11.6162 14.044 11.5102 14.52 11.3782 14.912C11.2462 15.304 11.0482 15.628 10.7842 15.884C10.5842 16.076 10.4022 16.204 10.2382 16.268C10.0742 16.332 9.94023 16.34 9.83623 16.292C9.73223 16.244 9.63823 16.164 9.55423 16.052C9.47023 15.94 9.41223 15.8 9.38023 15.632C9.34823 15.464 9.32423 15.296 9.30823 15.128C9.29223 14.96 9.30023 14.792 9.33223 14.624C9.38823 14.192 9.49023 13.762 9.63823 13.334C9.78623 12.906 9.99023 12.398 10.2502 11.81C10.5102 11.222 10.6842 10.816 10.7722 10.592C10.8922 10.288 11.0042 9.928 11.1082 9.512C11.1162 9.456 11.1322 9.356 11.1562 9.212C11.1802 9.068 11.2062 8.946 11.2342 8.846C11.2622 8.746 11.3042 8.656 11.3602 8.576C11.3922 8.528 11.4462 8.468 11.5222 8.396C11.5982 8.324 11.6722 8.254 11.7442 8.186C11.8162 8.118 11.8882 8.048 11.9602 7.976C12.0322 7.904 12.0902 7.826 12.1342 7.742C12.1782 7.658 12.2002 7.572 12.2002 7.484C12.2002 7.276 12.3282 6.828 12.5842 6.14C12.8402 5.444 13.1282 4.76 13.4482 4.088C14.0162 2.856 14.3282 2.168 14.3842 2.024C14.4082 1.976 14.4342 1.91 14.4622 1.826C14.4902 1.742 14.5162 1.664 14.5402 1.592C14.5642 1.52 14.5922 1.442 14.6242 1.358C14.6562 1.274 14.6922 1.196 14.7322 1.124C14.7722 1.052 14.8162 0.986 14.8642 0.925999C14.9122 0.865999 14.9682 0.815999 15.0322 0.775999C15.0962 0.735999 15.1682 0.707999 15.2482 0.692C15.5122 0.652 15.7142 0.728 15.8542 0.92C15.9942 1.112 16.0602 1.34 16.0522 1.604C16.0442 1.892 16.0082 2.19 15.9442 2.498C15.8802 2.806 15.8082 3.08 15.7282 3.32C15.6482 3.56 15.5322 3.842 15.3802 4.166C15.2282 4.49 15.1002 4.746 14.9962 4.934C14.8922 5.122 14.7442 5.39 14.5522 5.738C14.3602 6.086 14.2202 6.34 14.1322 6.5C13.9162 6.916 13.5702 7.506 13.0942 8.27C12.6182 9.034 12.3482 9.472 12.2842 9.584C12.2282 9.672 12.1882 9.748 12.1642 9.812C12.1402 9.876 12.1342 9.95 12.1462 10.034C12.1582 10.118 12.1942 10.19 12.2542 10.25C12.3142 10.31 12.3982 10.35 12.5062 10.37C12.6142 10.39 12.7962 10.412 13.0522 10.436C13.1962 10.452 13.3542 10.44 13.5262 10.4C13.6982 10.36 13.8562 10.304 14.0002 10.232C14.1442 10.16 14.2902 10.082 14.4382 9.998C14.5862 9.914 14.7102 9.834 14.8102 9.758C14.9102 9.682 14.9982 9.616 15.0742 9.56C15.1502 9.504 15.1922 9.476 15.2002 9.476C15.3762 9.356 15.5202 9.252 15.6322 9.164C15.8082 9.012 15.9622 8.95 16.0942 8.978C16.2262 9.006 16.2922 9.132 16.2922 9.356ZM10.6282 12.848C10.6202 12.856 10.6122 12.872 10.6042 12.896C10.4042 13.584 10.3842 14.024 10.5442 14.216C10.7282 13.88 10.8482 13.416 10.9042 12.824C10.9122 12.752 10.9002 12.7 10.8682 12.668C10.8202 12.62 10.7642 12.624 10.7002 12.68C10.6682 12.712 10.6442 12.768 10.6282 12.848Z" fill="#B82BBD"/>
</svg>
